<?xml version="1.0" encoding="UTF-8"?>
<svg xmlns="http://www.w3.org/2000/svg" width="2048" height="720" viewBox="0 0 2048 720" role="img" aria-labelledby="magmark-title magmark-description">
  <title id="magmark-title">MagMark — monochrome vector logo</title>
  <desc id="magmark-description">Traced from the supplied artwork, retaining its folded-page emblem, serif letter outlines, and spacing. The emblem represents the initial M followed by agMark. Single solid fill, transparent background and counters; no fonts, embedded images, gradients, filters, or external resources.</desc>
  <path fill="#000000" fill-rule="evenodd" d="M858.000,578.898 C826.719,576.865 801.707,564.701 792.388,546.989 C789.712,541.902 789.500,540.694 789.500,530.500 C789.500,520.378 789.733,519.021 792.423,513.500 C797.789,502.483 809.361,492.982 826.474,485.542 C830.338,483.863 833.725,482.130 834.000,481.693 C834.275,481.255 831.886,479.835 828.691,478.536 C825.495,477.237 820.815,474.565 818.290,472.598 C809.573,465.807 806.539,458.799 807.142,446.851 C807.905,431.757 817.459,419.561 835.040,411.241 C839.388,409.184 842.949,407.275 842.953,407.000 C842.957,406.725 840.680,405.150 837.892,403.500 C835.104,401.850 829.593,397.350 825.644,393.500 C802.462,370.897 801.135,335.872 822.565,312.191 C832.446,301.272 844.700,294.276 862.824,289.207 C871.888,286.671 873.765,286.502 892.500,286.527 C914.926,286.556 920.838,287.606 938.210,294.639 C944.098,297.023 947.713,297.994 948.510,297.406 C949.186,296.908 952.835,293.877 956.620,290.672 C964.480,284.014 974.404,277.833 982.166,274.760 C989.775,271.748 1001.922,271.764 1007.707,274.794 C1016.493,279.395 1019.385,289.847 1014.405,298.997 C1008.130,310.527 995.151,313.202 982.969,305.474 C974.341,300.001 969.797,298.046 965.651,298.022 C961.861,298.000 955.524,300.343 954.385,302.186 C954.064,302.705 956.516,305.585 959.834,308.587 C967.346,315.386 973.125,323.933 976.159,332.734 C979.167,341.457 979.386,358.218 976.614,367.500 C969.646,390.836 949.411,407.683 919.307,415.214 C911.880,417.071 907.678,417.420 892.500,417.436 C876.911,417.452 873.395,417.154 866.251,415.206 C861.714,413.970 856.943,412.476 855.650,411.886 C853.726,411.010 852.317,411.307 847.899,413.518 C841.173,416.885 838.360,419.418 835.799,424.414 C830.751,434.259 837.557,441.900 853.222,443.978 C857.225,444.509 873.100,445.418 888.500,445.998 C919.889,447.180 932.361,448.263 945.500,450.948 C967.630,455.470 981.162,464.574 988.241,479.702 C999.159,503.032 990.438,531.788 966.768,550.504 C946.965,566.163 917.951,576.326 885.535,578.959 C878.481,579.531 872.212,579.935 871.605,579.855 C870.997,579.775 864.875,579.344 858.000,578.898 Z
      M911.500,567.530 C929.496,564.607 939.437,559.798 950.601,548.615 C957.007,542.197 959.156,539.275 960.877,534.641 C968.625,513.781 960.604,497.647 939.170,490.976 C930.619,488.314 918.065,487.124 882.000,485.556 L849.500,484.142 L845.068,486.720 C838.818,490.355 832.591,497.096 829.308,503.782 C826.725,509.042 826.500,510.422 826.500,521.000 C826.500,531.532 826.732,532.973 829.261,538.121 C834.638,549.072 845.213,558.296 857.854,563.063 C872.472,568.577 894.014,570.370 911.500,567.530 Z
      M905.358,407.986 C911.712,404.968 916.016,400.416 920.293,392.194 C926.947,379.400 929.667,363.467 928.606,343.500 C927.260,318.178 920.465,303.324 906.852,295.944 C901.029,292.787 899.791,292.500 892.000,292.500 C884.707,292.500 882.687,292.899 877.776,295.311 C864.589,301.786 857.362,316.920 855.477,342.000 C854.753,351.641 856.188,368.583 858.485,377.500 C860.748,386.289 866.423,397.223 871.354,402.296 C879.807,410.994 894.019,413.372 905.358,407.986 Z
      M366.174,553.185 C364.624,548.012 356.090,533.991 350.530,527.484 C345.646,521.767 331.924,510.441 322.995,504.756 C295.225,487.078 249.740,470.195 191.561,455.972 C177.409,452.512 175.173,451.684 172.750,449.007 L170.000,445.968 L169.937,382.734 C169.769,213.583 170.040,178.565 171.526,177.061 C173.461,175.104 183.141,177.404 205.000,185.013 C225.365,192.103 238.308,197.597 261.500,208.995 C317.857,236.693 353.570,262.844 364.500,284.419 L368.500,292.315 L368.771,424.658 C368.923,498.433 368.661,557.000 368.180,557.000 C367.705,557.000 366.802,555.283 366.174,553.185 Z
      M388.593,544.812 C388.255,538.041 388.122,478.725 388.298,413.000 L388.617,293.500 L390.884,288.021 C400.233,265.426 433.640,239.690 491.500,210.508 C519.227,196.524 530.234,191.821 554.805,183.460 C578.328,175.456 584.484,174.055 586.645,176.216 C587.802,177.373 588.037,199.081 588.110,311.183 C588.188,432.467 588.048,444.997 586.584,447.231 C584.413,450.545 582.550,451.279 565.866,455.396 C532.704,463.580 494.232,475.750 474.000,484.458 C461.179,489.976 437.658,502.437 429.098,508.248 C419.534,514.740 402.554,531.733 398.160,539.211 C396.322,542.338 393.800,547.404 392.553,550.471 C391.307,553.537 390.045,556.289 389.748,556.585 C389.451,556.882 388.932,551.584 388.593,544.812 Z
      M649.000,483.059 C636.786,480.771 626.738,475.634 619.646,468.052 C608.445,456.078 605.524,438.430 612.016,421.960 C617.248,408.686 630.242,396.369 647.325,388.492 C658.490,383.343 679.519,376.567 702.500,370.713 L723.500,365.364 L723.801,345.932 C724.129,324.807 723.236,317.373 719.485,309.970 C713.946,299.039 704.204,294.369 688.778,295.248 C681.498,295.663 678.809,296.312 673.478,298.936 C664.201,303.503 659.028,311.114 661.192,317.009 C661.695,318.379 663.636,321.075 665.504,323.000 C669.120,326.724 672.000,332.534 672.000,336.102 C672.000,344.413 665.050,353.715 656.430,356.940 C649.331,359.597 639.080,359.674 633.444,357.114 C628.361,354.805 622.233,347.758 621.387,343.248 C620.200,336.921 621.539,326.822 624.271,321.500 C626.818,316.539 634.276,308.678 641.000,303.867 C651.457,296.385 666.008,290.580 681.000,287.908 C692.985,285.772 716.658,286.212 727.762,288.777 C744.470,292.637 757.977,301.055 764.986,311.979 C771.590,322.270 771.380,319.844 771.967,392.500 C772.449,452.150 772.664,458.799 774.203,461.609 C778.195,468.898 787.241,468.276 794.812,460.193 C798.343,456.423 799.430,455.782 800.812,456.653 C803.313,458.231 802.946,459.414 798.053,465.546 C788.455,477.575 776.959,482.944 760.725,482.979 C740.357,483.023 729.592,475.270 725.414,457.549 L723.703,450.293 L717.719,457.246 C707.960,468.585 695.933,476.456 681.500,480.950 C673.708,483.376 656.613,484.485 649.000,483.059 Z
      M696.327,463.060 C705.601,459.869 712.240,454.518 720.378,443.673 L724.000,438.847 L724.000,405.356 C724.000,373.920 723.893,371.898 722.250,372.407 C721.288,372.704 716.525,374.094 711.666,375.494 C686.003,382.890 672.148,391.400 663.178,405.275 C657.852,413.513 655.608,421.409 655.584,432.000 C655.561,441.974 656.829,446.888 661.080,453.307 C666.513,461.509 673.180,464.883 684.093,464.956 C688.122,464.983 692.881,464.245 696.327,463.060 Z
      M1377.849,482.996 C1366.255,481.151 1352.621,473.614 1346.602,465.722 C1336.855,452.944 1335.402,434.052 1343.006,418.988 C1354.224,396.766 1376.300,384.672 1430.500,371.058 L1453.500,365.280 L1453.487,343.390 C1453.475,323.195 1453.296,320.983 1451.181,314.827 C1447.746,304.829 1442.654,299.560 1433.840,296.883 C1417.371,291.880 1397.436,297.668 1391.411,309.200 C1388.894,314.018 1389.626,317.366 1394.351,322.642 C1399.550,328.448 1401.475,333.628 1400.560,339.353 C1398.649,351.306 1388.318,358.980 1374.116,358.994 C1366.338,359.002 1361.147,357.109 1356.383,352.527 C1346.269,342.800 1348.424,324.883 1361.257,312.014 C1376.704,296.524 1398.018,288.053 1425.723,286.393 C1444.128,285.290 1460.963,288.438 1475.329,295.668 C1487.223,301.654 1495.074,310.679 1499.322,323.252 C1501.361,329.284 1501.452,331.745 1501.967,394.546 C1502.462,455.012 1502.627,459.785 1504.303,462.341 C1508.730,469.093 1516.002,468.406 1523.683,460.510 C1528.208,455.858 1529.087,455.343 1530.610,456.457 C1532.152,457.584 1532.201,458.102 1531.030,460.928 C1528.989,465.855 1519.147,475.169 1512.651,478.321 C1495.750,486.520 1475.448,484.985 1464.247,474.660 C1458.811,469.649 1456.390,465.047 1454.867,456.829 L1453.695,450.500 L1443.597,460.597 C1432.420,471.774 1424.702,476.719 1412.280,480.664 C1403.710,483.386 1387.288,484.498 1377.849,482.996 Z
      M1430.485,461.082 C1437.774,457.494 1446.411,449.576 1451.098,442.185 L1454.000,437.608 L1454.000,405.471 C1454.000,387.795 1453.766,373.099 1453.480,372.813 C1453.194,372.527 1448.356,373.554 1442.730,375.094 C1414.055,382.945 1398.865,392.882 1390.677,409.147 C1386.194,418.051 1384.609,425.980 1385.285,436.122 C1386.237,450.401 1393.173,460.255 1404.994,464.124 C1406.372,464.575 1411.170,464.814 1415.655,464.656 C1422.506,464.415 1424.876,463.843 1430.485,461.082 Z
      M1002.000,480.027 C999.657,478.535 1002.473,476.550 1008.935,475.138 C1024.470,471.743 1032.191,459.081 1034.934,432.500 C1036.232,419.930 1038.918,312.452 1039.250,259.851 L1039.500,220.202 L1036.456,215.851 C1032.786,210.607 1027.256,207.370 1019.368,205.849 C1012.626,204.550 1011.689,203.973 1012.574,201.667 C1013.155,200.154 1016.499,200.001 1048.857,200.015 C1068.461,200.024 1085.049,200.380 1085.720,200.806 C1087.390,201.867 1091.737,212.487 1138.599,330.000 C1173.635,417.859 1171.254,412.003 1171.934,411.987 C1172.245,411.980 1174.028,408.267 1175.894,403.737 C1180.723,392.019 1192.573,364.304 1201.008,345.000 C1204.974,335.925 1209.106,326.250 1210.190,323.500 C1211.275,320.750 1216.357,309.050 1221.485,297.500 C1226.613,285.950 1231.934,273.800 1233.310,270.500 C1246.165,239.666 1263.031,202.554 1264.801,201.204 C1266.138,200.184 1274.375,199.971 1303.500,200.204 C1339.655,200.493 1340.500,200.545 1340.500,202.487 C1340.500,204.155 1339.405,204.673 1333.687,205.709 C1320.990,208.011 1313.928,213.711 1310.220,224.653 C1308.745,229.007 1308.544,240.622 1308.248,338.814 C1307.954,435.884 1308.094,448.822 1309.497,454.314 C1312.693,466.822 1318.667,472.170 1332.431,474.839 C1339.283,476.168 1340.994,476.849 1340.997,478.250 C1341.000,479.897 1337.474,480.000 1280.927,480.000 C1225.160,480.000 1220.877,479.879 1221.178,478.317 C1221.418,477.068 1223.375,476.318 1228.754,475.412 C1243.447,472.936 1251.740,465.327 1253.963,452.281 C1254.799,447.374 1255.033,417.734 1254.809,345.004 L1254.500,244.509 L1248.290,258.504 C1244.874,266.202 1237.160,283.975 1231.146,298.000 C1215.142,335.326 1192.077,388.638 1185.719,403.000 C1182.675,409.875 1175.231,426.975 1169.176,441.000 C1163.121,455.025 1156.787,469.562 1155.100,473.305 L1152.034,480.111 L1147.421,479.805 L1142.809,479.500 L1136.820,465.000 C1133.527,457.025 1126.422,439.250 1121.032,425.500 C1073.896,305.249 1049.852,244.656 1048.818,243.513 C1048.294,242.933 1048.065,283.194 1048.264,341.013 C1048.632,448.138 1048.506,445.688 1054.299,458.341 C1058.761,468.089 1067.781,474.295 1079.638,475.776 C1084.585,476.394 1085.500,476.820 1085.500,478.504 C1085.500,480.462 1084.724,480.505 1044.500,480.741 C1019.729,480.887 1002.906,480.604 1002.000,480.027 Z
      M1528.177,478.359 C1528.375,477.353 1530.265,476.271 1533.061,475.562 C1539.081,474.035 1543.329,470.894 1545.627,466.270 C1547.406,462.689 1547.500,458.846 1547.500,389.500 L1547.500,316.500 L1545.263,313.364 C1542.706,309.779 1537.819,307.552 1530.250,306.525 C1526.148,305.968 1525.000,305.423 1525.000,304.031 C1525.000,302.524 1530.270,300.932 1559.227,293.690 C1584.016,287.491 1593.804,285.423 1594.727,286.188 C1595.679,286.978 1596.015,292.448 1596.059,307.872 C1596.105,324.222 1596.365,328.114 1597.309,326.641 C1611.594,304.347 1620.944,293.884 1631.611,288.256 C1648.992,279.084 1669.923,284.260 1673.940,298.723 C1678.543,315.297 1669.372,332.159 1654.458,334.543 C1645.085,336.041 1637.037,331.004 1632.097,320.549 C1629.785,315.657 1628.432,313.998 1626.085,313.179 C1617.790,310.288 1608.582,318.411 1599.917,336.263 L1595.920,344.500 L1596.210,401.500 C1596.477,453.905 1596.645,458.822 1598.303,462.500 C1602.001,470.703 1607.820,474.349 1619.487,475.774 C1624.030,476.329 1625.555,476.926 1625.810,478.253 C1626.127,479.897 1623.241,480.000 1577.000,480.000 C1531.975,480.000 1527.880,479.862 1528.177,478.359 Z
      M1659.506,479.009 C1658.366,477.165 1659.949,476.194 1665.251,475.488 C1676.623,473.972 1684.853,468.202 1686.947,460.275 C1687.737,457.285 1688.083,421.121 1688.131,336.511 L1688.198,216.971 L1685.849,212.288 C1682.985,206.578 1678.513,204.038 1669.957,203.262 C1664.564,202.773 1663.932,202.488 1664.199,200.666 C1664.406,199.260 1665.597,198.350 1668.000,197.763 C1669.925,197.292 1677.125,195.382 1684.000,193.519 C1724.176,182.629 1735.294,179.894 1736.103,180.703 C1736.605,181.205 1737.101,226.092 1737.245,284.045 L1737.500,386.500 L1770.155,354.000 C1806.233,318.093 1810.359,313.007 1810.447,304.333 C1810.490,300.186 1810.018,298.651 1808.059,296.565 C1805.321,293.649 1797.592,291.000 1791.818,291.000 C1788.667,291.000 1788.000,290.651 1788.000,289.000 C1788.000,287.031 1788.667,287.000 1831.000,287.000 C1871.287,287.000 1874.000,287.110 1873.997,288.750 C1873.994,290.153 1872.266,290.835 1865.292,292.188 C1847.117,295.714 1831.505,306.755 1797.540,340.107 L1778.581,358.724 L1784.540,367.291 C1787.818,372.003 1793.914,380.728 1798.088,386.679 C1805.039,396.592 1812.017,406.585 1828.458,430.166 C1845.384,454.444 1851.564,462.255 1857.200,466.491 C1864.061,471.649 1871.567,474.660 1880.226,475.728 C1884.790,476.291 1886.500,476.911 1886.500,478.001 C1886.500,479.304 1881.387,479.529 1847.500,479.721 L1808.500,479.941 L1804.500,474.244 C1802.300,471.110 1791.129,455.261 1779.675,439.023 C1768.222,422.785 1755.851,405.113 1752.186,399.750 C1748.520,394.387 1745.042,390.000 1744.457,390.000 C1743.871,390.000 1741.931,391.508 1740.144,393.351 L1736.896,396.703 L1737.198,429.101 C1737.471,458.436 1737.678,461.858 1739.380,465.284 C1741.863,470.281 1747.749,473.620 1756.811,475.174 C1762.403,476.133 1763.998,476.772 1763.769,477.959 C1763.508,479.319 1757.410,479.530 1711.801,479.759 C1677.846,479.929 1659.915,479.672 1659.506,479.009 Z"/>
</svg>
